<?xml version="1.0" encoding="UTF-8" standalone="no"?>
<!-- Created with Inkscape (http://www.inkscape.org/) -->

<svg
   width="15.029412mm"
   height="15.027531mm"
   viewBox="0 0 15.029412 15.027531"
   version="1.1"
   id="svg1"
   inkscape:version="1.4 (86a8ad7, 2024-10-11)"
   sodipodi:docname="logo drkhdr.svg"
   xml:space="preserve"
   xmlns:inkscape="http://www.inkscape.org/namespaces/inkscape"
   xmlns:sodipodi="http://sodipodi.sourceforge.net/DTD/sodipodi-0.dtd"
   xmlns="http://www.w3.org/2000/svg"
   xmlns:svg="http://www.w3.org/2000/svg"><sodipodi:namedview
     id="namedview1"
     pagecolor="#ffffff"
     bordercolor="#000000"
     borderopacity="0.25"
     inkscape:showpageshadow="2"
     inkscape:pageopacity="0.0"
     inkscape:pagecheckerboard="0"
     inkscape:deskcolor="#d1d1d1"
     inkscape:document-units="mm"
     inkscape:zoom="16"
     inkscape:cx="253.96875"
     inkscape:cy="147.9375"
     inkscape:window-width="6020"
     inkscape:window-height="2396"
     inkscape:window-x="-12"
     inkscape:window-y="-12"
     inkscape:window-maximized="1"
     inkscape:current-layer="layer1"><inkscape:page
       x="0"
       y="0"
       width="15.029412"
       height="15.027531"
       id="page2"
       margin="0"
       bleed="0" /></sodipodi:namedview><defs
     id="defs1" /><g
     inkscape:label="Layer 1"
     inkscape:groupmode="layer"
     id="layer1"
     transform="translate(-40.139149,-57.202777)"><path
       style="font-weight:bold;font-size:21.1667px;font-family:Bahnschrift;-inkscape-font-specification:'Bahnschrift Bold';letter-spacing:-1.85208px;word-spacing:2.70933px;fill:#252849;fill-opacity:1;stroke:#ffffff;stroke-width:0"
       d="m 40.139149,72.230304 v -2.72852 h 1.408503 c 0.930177,0 1.650203,-0.223932 2.160078,-0.671795 0.509875,-0.454753 0.764813,-1.088652 0.764813,-1.901695 v -4.42351 c 0,-0.819934 -0.254938,-1.453833 -0.764813,-1.901696 -0.509875,-0.447863 -1.229901,-0.671794 -2.160078,-0.671794 h -1.408503 v -2.72852 h 1.346491 c 1.887915,0 3.345193,0.471979 4.371833,1.415936 1.033531,0.937067 1.550296,2.259986 1.550296,3.968756 v 4.258145 c 0,1.067981 -0.220487,2.008494 -0.66146,2.821538 -0.440973,0.806153 -1.102432,1.436607 -1.984378,1.89136 -0.875055,0.447863 -1.970597,0.671795 -3.286626,0.671795 z m 9.554806,0 2.642732,-7.513765 -2.642732,-7.513765 h 2.831873 l 2.642732,7.513765 -2.642732,7.513765 z m -3.739319,-6.087493 v -2.72852 h 8.224836 v 2.72852 z"
       id="path4"
       aria-label="DH"
       sodipodi:nodetypes="ccscssssccscssccsccccccccccccc" /></g></svg>
